<svg xmlns="http://www.w3.org/2000/svg" width="211" height="60" viewBox="0 0 211 60"><defs><style>.a{fill:#fff;font-size:50px;font-family:Rubik-Medium, Rubik;font-weight:500;}.b{fill:#fff100;fill-rule:evenodd;}</style></defs><g transform="translate(-258 -169)"><text class="a" transform="translate(258 216)"><tspan x="0" y="0" xml:space="preserve">PH    TOS</tspan></text><g transform="translate(282.922 185.787)"><path class="b" d="M66.078,10.768a9.723,9.723,0,1,0,9.643,9.722A9.687,9.687,0,0,0,66.078,10.768ZM56.12,27.62H51.935a3.873,3.873,0,0,1-3.857-3.889V5.958a3.873,3.873,0,0,1,3.857-3.889H80.221a3.873,3.873,0,0,1,3.857,3.889V23.731a3.873,3.873,0,0,1-3.857,3.889H76.036a12.215,12.215,0,1,0-19.916,0ZM54.506,9.472h2.572a1.3,1.3,0,0,0,0-2.593H54.506a1.3,1.3,0,0,0,0,2.593ZM76.363-.9a3.872,3.872,0,0,0-3.856-3.889H59.65A3.873,3.873,0,0,0,55.793-.9V-.52H76.363Z"/></g></g></svg>