<svg xmlns="http://www.w3.org/2000/svg" width="244" height="52.08" viewBox="0 0 179 36.88">
  <g id="Logo" transform="translate(-9670 7901.758)">
    <text id="sh_wbuzz" data-name="sh   wbuzz" transform="translate(9670 -7868.878)" fill="#fff" font-size="22" font-family="FiestaRumba, Fiesta Rumba"><tspan x="0" y="0" xml:space="preserve">SH   WBUZZ</tspan></text>
    <g id="Group_1354" data-name="Group 1354" transform="translate(9708.742 -7901.758)">
      <circle id="Ellipse_297" data-name="Ellipse 297" cx="10.176" cy="10.176" r="10.176" transform="translate(4.447 10.658)" fill="#464d59"/>
      <circle id="Ellipse_298" data-name="Ellipse 298" cx="5.819" cy="5.819" r="5.819" transform="translate(6.393 21.171) rotate(-45)" fill="#3a3948"/>
      <path id="Path_3177" data-name="Path 3177" d="M1348.744,1235.758s-.146.5-.476,1.294h0c-.19.46-.443,1.019-.764,1.637a20.911,20.911,0,0,1-1.164,1.972q-.239.357-.5.72-.2.276-.421.552-.38.48-.81.953a14.157,14.157,0,0,1-8.659,4.663l-1.877-.687a15.428,15.428,0,0,0,7.464-4.994q.38-.461.741-.976.193-.274.378-.566.227-.357.443-.74a16.3,16.3,0,0,0,.963-2.039,17.357,17.357,0,0,0,.568-1.7q.108-.386.2-.788A12.213,12.213,0,0,0,1348.744,1235.758Z" transform="translate(-1320.809 -1235.058)" fill="#464d59"/>
      <path id="Path_3178" data-name="Path 3178" d="M1463.615,1334.341q-.38.48-.81.953l-3.073-1.017q.381-.461.741-.976Z" transform="translate(-1439.009 -1327.645)" fill="#4e5569"/>
      <path id="Path_3179" data-name="Path 3179" d="M1482.263,1312.389q-.239.357-.5.72l-3.185-1.054q.227-.357.443-.74Z" transform="translate(-1456.732 -1306.786)" fill="#4e5569"/>
      <path id="Path_3180" data-name="Path 3180" d="M1506.457,1249.529h0c-.19.46-.443,1.019-.764,1.637l-3.448-1.141a17.447,17.447,0,0,0,.568-1.7Z" transform="translate(-1478.997 -1247.535)" fill="#4e5569"/>
      <path id="Path_3181" data-name="Path 3181" d="M1373.391,1257.182a.141.141,0,0,1-.05-.273,8.258,8.258,0,0,0,.756-.35.141.141,0,0,1,.129.251,8.4,8.4,0,0,1-.785.363A.142.142,0,0,1,1373.391,1257.182Zm1.511-.767a.141.141,0,0,1-.072-.262c.236-.141.475-.292.708-.449a.141.141,0,1,1,.157.234c-.238.16-.481.314-.722.458A.141.141,0,0,1,1374.9,1256.415Zm1.4-.945a.141.141,0,0,1-.085-.254c.222-.167.443-.343.656-.523a.141.141,0,1,1,.181.216c-.217.183-.442.362-.668.532A.141.141,0,0,1,1376.307,1255.47Zm1.294-1.089a.141.141,0,0,1-.1-.244c.2-.19.4-.388.6-.589a.141.141,0,0,1,.2.2c-.2.2-.4.406-.607.6A.14.14,0,0,1,1377.6,1254.381Zm1.171-1.22a.141.141,0,0,1-.107-.233c.182-.211.36-.43.53-.649a.141.141,0,1,1,.223.172c-.172.224-.354.446-.539.661A.14.14,0,0,1,1378.772,1253.161Zm1.032-1.339a.141.141,0,0,1-.116-.221c.158-.229.311-.465.456-.7a.141.141,0,0,1,.241.147c-.148.242-.3.483-.464.716A.141.141,0,0,1,1379.8,1251.823Zm.881-1.442a.141.141,0,0,1-.124-.208c.131-.244.258-.5.377-.748a.141.141,0,1,1,.255.12c-.121.257-.25.513-.384.761A.141.141,0,0,1,1380.686,1250.38Zm.72-1.528a.141.141,0,0,1-.13-.194c.1-.257.2-.52.3-.784a.141.141,0,1,1,.266.093c-.093.268-.195.536-.3.8A.141.141,0,0,1,1381.406,1248.852Zm.557-1.6a.136.136,0,0,1-.04-.006.141.141,0,0,1-.1-.175c.06-.205.117-.416.17-.625a.141.141,0,0,1,.274.069c-.054.213-.112.427-.173.635A.141.141,0,0,1,1381.963,1247.257Z" transform="translate(-1357.664 -1245.674)" fill="#e5ebf2"/>
      <path id="Path_3182" data-name="Path 3182" d="M1418.742,1264.618a.141.141,0,0,1-.052-.272l.036-.014a.141.141,0,0,1,.106.261l-.037.015A.139.139,0,0,1,1418.742,1264.618Zm.8-.369a.141.141,0,0,1-.065-.266c.242-.125.485-.264.724-.414a.141.141,0,0,1,.15.239c-.245.153-.5.3-.744.425A.139.139,0,0,1,1419.546,1264.249Zm1.433-.9a.141.141,0,0,1-.084-.255c.219-.161.44-.336.657-.518a.141.141,0,1,1,.182.215c-.221.186-.447.365-.671.529A.138.138,0,0,1,1420.979,1263.354Zm1.294-1.088a.141.141,0,0,1-.1-.243c.2-.188.4-.388.591-.593a.141.141,0,1,1,.2.194c-.2.209-.4.413-.6.6A.14.14,0,0,1,1422.272,1262.266Zm1.163-1.228a.14.14,0,0,1-.092-.034.141.141,0,0,1-.015-.2c.179-.208.358-.427.533-.65a.141.141,0,0,1,.222.174c-.177.226-.359.448-.541.659A.141.141,0,0,1,1423.435,1261.038Zm1.047-1.33a.141.141,0,0,1-.114-.224c.161-.223.323-.456.48-.691a.141.141,0,0,1,.234.156c-.159.238-.323.474-.486.7A.141.141,0,0,1,1424.482,1259.708Zm.942-1.407a.141.141,0,0,1-.12-.215c.146-.235.292-.479.432-.723a.141.141,0,1,1,.244.141c-.142.247-.289.493-.437.731A.141.141,0,0,1,1425.423,1258.3Zm.846-1.467a.141.141,0,0,1-.124-.207c.133-.249.263-.5.386-.749a.141.141,0,0,1,.253.125c-.124.251-.256.506-.39.757A.141.141,0,0,1,1426.269,1256.833Zm.752-1.519a.141.141,0,0,1-.128-.2c.217-.478.33-.771.331-.774a.141.141,0,1,1,.263.1c0,.012-.117.3-.338.79A.141.141,0,0,1,1427.021,1255.314Z" transform="translate(-1400.321 -1253.11)" fill="#e5ebf2"/>
      <path id="Path_3183" data-name="Path 3183" d="M1140.075,1371a13.592,13.592,0,0,0-.784-4.087,13.951,13.951,0,0,0-2.557-4.388,14.492,14.492,0,0,0-1.427-1.443,14.793,14.793,0,0,0-6.955-3.4,15.238,15.238,0,0,0-2.892-.276,14.366,14.366,0,0,0-14.623,14.095,13.735,13.735,0,0,0,.075,1.442h0a13.741,13.741,0,0,0,2.837,7,14.3,14.3,0,0,0,1.352,1.507,14.688,14.688,0,0,0,4.286,2.875,14.917,14.917,0,0,0,4.143,1.148h0a15.331,15.331,0,0,0,1.93.122,15.177,15.177,0,0,0,3.373-.377,14.468,14.468,0,0,0,10.47-9.161h0a13.622,13.622,0,0,0,.781-4.556C1140.084,1371.338,1140.081,1371.17,1140.075,1371Zm-14.614-11.032c.092,0,.182,0,.272.009a3.815,3.815,0,1,1-4.223,3.8c0-.035,0-.07,0-.1A3.886,3.886,0,0,1,1125.46,1359.971Zm-11.383,7.971a3.983,3.983,0,0,1,4.978-2.444c.09.029.179.06.266.094a3.768,3.768,0,0,1,2.271,4.7,3.984,3.984,0,0,1-4.978,2.445,3.871,3.871,0,0,1-2.566-2.535A3.662,3.662,0,0,1,1114.078,1367.942Zm9.866,12.056a4.047,4.047,0,0,1-5.518.842,3.833,3.833,0,0,1-1.158-1.278,3.691,3.691,0,0,1,.284-4.041,3.99,3.99,0,0,1,3.05-1.567,4.039,4.039,0,0,1,2.343.641c.042.027.084.055.125.084A3.72,3.72,0,0,1,1123.943,1380Zm8.552.842a4.071,4.071,0,0,1-4.054.342,3.887,3.887,0,0,1-1.464-1.185,3.712,3.712,0,0,1,.874-5.319,4.061,4.061,0,0,1,3.271-.615,3.944,3.944,0,0,1,2.247,1.458,3.769,3.769,0,0,1,.506.907A3.729,3.729,0,0,1,1132.5,1380.84Zm1.812-8.1a4.08,4.08,0,0,1-1.834.141,3.916,3.916,0,0,1-3.145-2.586,3.665,3.665,0,0,1-.194-1.118,3.823,3.823,0,0,1,2.73-3.68,4.083,4.083,0,0,1,1.663-.164,3.923,3.923,0,0,1,3.316,2.608,3.689,3.689,0,0,1,.188.951h0A3.815,3.815,0,0,1,1134.307,1372.74Z" transform="translate(-1110.837 -1350.145)" fill="#b8bbcc"/>
      <path id="Path_3184" data-name="Path 3184" d="M1136.5,1365.754l-14.706,13.351a3.953,3.953,0,0,0-3.77,3.423l-3.081,2.8a14.553,14.553,0,0,1-2.837-7.263h0l3.135-2.846a3.951,3.951,0,1,0,5.273-4.787l2.19-1.989c0,.036,0,.073,0,.109a3.95,3.95,0,1,0,4.223-3.942l2.62-2.378A14.587,14.587,0,0,1,1136.5,1365.754Z" transform="translate(-1112.031 -1355.271)" fill="#c9cfe0"/>
      <path id="Path_3185" data-name="Path 3185" d="M1200.016,1566.771l-1.351,1.226a3.951,3.951,0,0,0-4.859,4.411l-6.876,6.243a14.66,14.66,0,0,1-4.285-2.983l2.165-1.966a3.951,3.951,0,1,0,5.8-5.066c-.041-.03-.083-.059-.125-.087l6.191-5.62a3.955,3.955,0,0,0,3.338,3.843Z" transform="translate(-1178.38 -1544.511)" fill="#c9cfe0"/>
      <path id="Path_3186" data-name="Path 3186" d="M1498.623,1451.333l-2.259,2.051a3.959,3.959,0,0,0-3.5-3.693l3.206-2.911A14.608,14.608,0,0,1,1498.623,1451.333Z" transform="translate(-1470.17 -1434.649)" fill="#cccfe3"/>
      <path id="Path_3187" data-name="Path 3187" d="M1341.105,1595.333a14.607,14.607,0,0,1-.781,4.727h0l-10.47,9.5a14.644,14.644,0,0,1-3.373.391,14.8,14.8,0,0,1-1.93-.126l4.911-4.459a3.951,3.951,0,0,0,5.433-4.933l6.2-5.629C1341.1,1594.983,1341.105,1595.158,1341.105,1595.333Z" transform="translate(-1311.858 -1574.499)" fill="#c9cfe0"/>
      <circle id="Ellipse_299" data-name="Ellipse 299" cx="1.438" cy="1.438" r="1.438" transform="translate(12.973 22.436) rotate(-80.783)" fill="#3a3948"/>
      <path id="Path_3188" data-name="Path 3188" d="M1139.531,1399.847a13.735,13.735,0,1,1,13.735-13.735A13.75,13.75,0,0,1,1139.531,1399.847Zm0-26.624a12.889,12.889,0,1,0,12.889,12.889A12.9,12.9,0,0,0,1139.531,1373.224Z" transform="translate(-1124.907 -1365.279)" fill="#6d708b"/>
      <circle id="Ellipse_300" data-name="Ellipse 300" cx="0.59" cy="0.59" r="0.59" transform="translate(14.033 17.755)" fill="#3a3948"/>
      <circle id="Ellipse_301" data-name="Ellipse 301" cx="0.59" cy="0.59" r="0.59" transform="translate(11.101 19.859) rotate(-8.555)" fill="#3a3948"/>
      <path id="Path_3189" data-name="Path 3189" d="M1317.54,1634.764a.59.59,0,1,1,.13.824A.59.59,0,0,1,1317.54,1634.764Z" transform="translate(-1305.157 -1611.504)" fill="#3a3948"/>
      <path id="Path_3190" data-name="Path 3190" d="M1376.882,1635.462a.59.59,0,1,1,.824.131A.59.59,0,0,1,1376.882,1635.462Z" transform="translate(-1360.974 -1611.509)" fill="#3a3948"/>
      <circle id="Ellipse_302" data-name="Ellipse 302" cx="0.59" cy="0.59" r="0.59" transform="translate(16.693 20.064) rotate(-24.644)" fill="#3a3948"/>
      <path id="Path_3191" data-name="Path 3191" d="M1194.341,1602.6a6.423,6.423,0,0,1-1.96-.3.211.211,0,0,1,.141-.4h0a6.155,6.155,0,0,0,2.115.268,4.25,4.25,0,0,0,3.54-2.018.211.211,0,1,1,.356.229,4.712,4.712,0,0,1-3.889,2.213C1194.541,1602.6,1194.44,1602.6,1194.341,1602.6Z" transform="translate(-1187.405 -1579.051)" fill="#e5ebf2"/>
      <path id="Path_3192" data-name="Path 3192" d="M1282.136,1714.364h-.043a.211.211,0,0,1,.013-.423,4.063,4.063,0,0,0,4.034-4.459.211.211,0,0,1,.423.014c-.089,2.577-1.3,3.766-2.3,4.309A4.707,4.707,0,0,1,1282.136,1714.364Z" transform="translate(-1271.728 -1682.168)" fill="#e5ebf2"/>
      <path id="Path_3193" data-name="Path 3193" d="M1496.425,1666.376a.211.211,0,0,1-.2-.275h0a4.523,4.523,0,0,0-.708-3.993.211.211,0,0,1,.316-.281,4.868,4.868,0,0,1,.8,4.4A.211.211,0,0,1,1496.425,1666.376Z" transform="translate(-1472.617 -1637.252)" fill="#e5ebf2"/>
      <path id="Path_3194" data-name="Path 3194" d="M1489.511,1570.711a.211.211,0,0,1-.014-.422h0a5.018,5.018,0,0,0,1.844-.573,3.672,3.672,0,0,0,1.959-3.206.211.211,0,1,1,.422.025,4.112,4.112,0,0,1-2.192,3.56,5.365,5.365,0,0,1-2,.616Z" transform="translate(-1466.821 -1547.283)" fill="#e5ebf2"/>
      <path id="Path_3195" data-name="Path 3195" d="M1383.354,1442.955a.211.211,0,0,1-.063-.413,4.359,4.359,0,0,0,1.7-1.145,4.769,4.769,0,0,0,.877-4.555.212.212,0,0,1,.412-.1,5.149,5.149,0,0,1-.99,4.953,4.7,4.7,0,0,1-1.878,1.249A.219.219,0,0,1,1383.354,1442.955Z" transform="translate(-1366.969 -1425.031)" fill="#e5ebf2"/>
      <path id="Path_3196" data-name="Path 3196" d="M1275.725,1399.088a.211.211,0,0,1-.207-.167,5.348,5.348,0,0,1,.051-2.058,5.147,5.147,0,0,1,2.69-3.5.211.211,0,0,1,.2.371,4.694,4.694,0,0,0-2.476,3.2,5.02,5.02,0,0,0-.054,1.9.211.211,0,0,1-.163.25A.2.2,0,0,1,1275.725,1399.088Z" transform="translate(-1265.667 -1384.262)" fill="#6d708b"/>
      <path id="Path_3197" data-name="Path 3197" d="M1449.267,1485.294a.211.211,0,0,1-.092-.4,4.535,4.535,0,0,1,3.906.008.212.212,0,0,1-.213.365,4.168,4.168,0,0,0-3.509.008A.212.212,0,0,1,1449.267,1485.294Z" transform="translate(-1428.967 -1470.06)" fill="#6d708b"/>
      <path id="Path_3198" data-name="Path 3198" d="M1353.691,1655.716l-.034,0a.211.211,0,0,1-.175-.242,4.716,4.716,0,0,1,.994-2.075.211.211,0,1,1,.325.271,4.368,4.368,0,0,0-.9,1.871A.211.211,0,0,1,1353.691,1655.716Z" transform="translate(-1339.067 -1629.246)" fill="#6d708b"/>
      <path id="Path_3199" data-name="Path 3199" d="M1405.65,1630.7a.211.211,0,0,1-.129-.044c-1.2-.922-3.767-.552-3.793-.549a.211.211,0,0,1-.062-.418c.113-.017,2.773-.4,4.113.632a.211.211,0,0,1-.129.379Z" transform="translate(-1384.222 -1606.866)" fill="#6d708b"/>
      <path id="Path_3200" data-name="Path 3200" d="M1197.771,1651.18a.212.212,0,0,1-.209-.179,4.872,4.872,0,0,1,1.964-4.5.211.211,0,1,1,.248.342,4.511,4.511,0,0,0-1.795,4.09.212.212,0,0,1-.177.241Z" transform="translate(-1192.38 -1622.84)" fill="#6d708b"/>
      <path id="Path_3201" data-name="Path 3201" d="M1182.368,1482.667a.211.211,0,0,1-.111-.391,4.965,4.965,0,0,1,4.137-.322.211.211,0,0,1-.151.395,4.621,4.621,0,0,0-3.765.287A.212.212,0,0,1,1182.368,1482.667Z" transform="translate(-1177.92 -1467.431)" fill="#6d708b"/>
    </g>
  </g>
</svg>
